0
SECTION
2
HEADER
9
$INSUNITS
70
4
9
$ACADVER
1
AC1014
9
$HANDSEED
5
FFFF
0
ENDSEC
0
SECTION
2
TABLES
0
TABLE
2
VPORT
5
8
100
AcDbSymbolTable
0
ENDTAB
0
TABLE
2
LTYPE
5
5
100
AcDbSymbolTable
0
LTYPE
5
14
100
AcDbSymbolTableRecord
100
AcDbLinetypeTableRecord
2
BYBLOCK
70
0
0
LTYPE
5
15
100
AcDbSymbolTableRecord
100
AcDbLinetypeTableRecord
2
BYLAYER
70
0
0
ENDTAB
0
TABLE
2
LAYER
5
2
100
AcDbSymbolTable
70
2
0
LAYER
5
50
100
AcDbSymbolTableRecord
100
AcDbLayerTableRecord
2
0
70
0
6
CONTINUOUS
0
ENDTAB
0
TABLE
2
STYLE
5
3
100
AcDbSymbolTable
70
1
0
STYLE
5
11
100
AcDbSymbolTableRecord
100
AcDbTextStyleTableRecord
2
STANDARD
70
0
0
ENDTAB
0
TABLE
2
VIEW
5
6
100
AcDbSymbolTable
70
0
0
ENDTAB
0
TABLE
2
UCS
5
7
100
AcDbSymbolTable
70
0
0
ENDTAB
0
TABLE
2
APPID
5
9
100
AcDbSymbolTable
70
2
0
APPID
5
12
100
AcDbSymbolTableRecord
100
AcDbRegAppTableRecord
2
ACAD
70
0
0
ENDTAB
0
TABLE
2
DIMSTYLE
5
A
100
AcDbSymbolTable
70
1
0
ENDTAB
0
TABLE
2
BLOCK_RECORD
5
1
100
AcDbSymbolTable
70
1
0
BLOCK_RECORD
5
1F
100
AcDbSymbolTableRecord
100
AcDbBlockTableRecord
2
*MODEL_SPACE
0
BLOCK_RECORD
5
1B
100
AcDbSymbolTableRecord
100
AcDbBlockTableRecord
2
*PAPER_SPACE
0
ENDTAB
0
ENDSEC
0
SECTION
2
BLOCKS
0
BLOCK
5
20
100
AcDbEntity
100
AcDbBlockBegin
2
*MODEL_SPACE
0
ENDBLK
5
21
100
AcDbEntity
100
AcDbBlockEnd
0
BLOCK
5
1C
100
AcDbEntity
100
AcDbBlockBegin
2
*PAPER_SPACE
0
ENDBLK
5
1D
100
AcDbEntity
100
AcDbBlockEnd
0
ENDSEC
0
SECTION
2
ENTITIES
0
LWPOLYLINE
5
100
100
AcDbEntity
8
0
100
AcDbPolyline
90
37
70
1
43
0.0
10
-326.43662006070053
20
235.97795299156385
10
-326.89340255251682
20
235.88086087567234
10
-334.98839121501334
20
234.1609679524318
10
-334.97547495220141
20
234.10017521376091
10
-331.10096876561153
20
215.86958323833056
10
-328.30570434550879
20
216.46365441843014
10
-328.24226338991718
20
216.16514768744753
10
-324.27179840222584
20
197.48762329572233
10
-324.4589997157093
20
197.44782807204882
10
-331.72623434250818
20
195.90280217374971
10
-327.82102437269822
20
177.53412812833312
10
-327.76513030074
20
177.27119597917982
10
-402.54457192745474
20
161.37459487986467
10
-402.64238729218857
20
161.35380655569003
10
-406.60000000000002
20
161.72699999999998
10
-426
20
161.72699999999998
10
-426
20
162.68899999999999
10
-483.15000000000003
20
162.68899999999999
10
-483.15000000000003
20
181.73900000000003
10
-489.79999999999995
20
181.73900000000003
10
-489.79999999999995
20
200.78900000000002
10
-492.60599999999999
20
200.78900000000002
10
-492.60599999999999
20
220.18900000000005
10
-477.39400000000001
20
220.18900000000005
10
-477.39400000000001
20
239.22700000000003
10
-458.31200000000001
20
239.22700000000003
10
-458.31200000000001
20
258.27700000000004
10
-429.38700000000006
20
258.27700000000004
10
-429.38700000000006
20
239.22700000000003
10
-411.3964742042092
20
239.22700000000003
10
-415.46315743050866
20
258.35838796472399
10
-387.17058486458791
20
264.37242785011244
10
-386.8061690764946
20
262.65806274358113
10
-386.78315996363426
20
262.54984608710691
10
-386.74665290669907
20
262.55760824702378
10
-334.79279605038136
20
273.60082340206458
10
-334.4491347530448
20
273.67387086580544
0
CIRCLE
5
101
100
AcDbEntity
8
0
100
AcDbCircle
10
-424.59333489921931
20
133.78293328486194
30
0
40
1.7500000000000426
210
0
220
-0
230
1
0
CIRCLE
5
102
100
AcDbEntity
8
0
100
AcDbCircle
10
-186.60038510042253
20
133.33761139636954
30
0
40
1.7500000000000071
210
0
220
-0
230
1
0
CIRCLE
5
103
100
AcDbEntity
8
0
100
AcDbCircle
10
-318.70107626071376
20
286.80741616404708
30
0
40
1.7500000000000071
210
0
220
-0
230
1
0
CIRCLE
5
104
100
AcDbEntity
8
0
100
AcDbCircle
10
-196.60038593160081
20
266.45471743492345
30
0
40
1.7500000000000071
210
0
220
-0
230
1
0
CIRCLE
5
105
100
AcDbEntity
8
0
100
AcDbCircle
10
-206.60038507609002
20
133.33859795624488
30
0
40
1.7500000000000071
210
0
220
-0
230
1
0
CIRCLE
5
106
100
AcDbEntity
8
0
100
AcDbCircle
10
-523.68430841540646
20
133.70324812621493
30
0
40
1.7499999999999716
210
0
220
-0
230
1
0
CIRCLE
5
107
100
AcDbEntity
8
0
100
AcDbCircle
10
-84.071089242724469
20
133.88104998614631
30
0
40
1.7500000000000071
210
0
220
-0
230
1
0
CIRCLE
5
108
100
AcDbEntity
8
0
100
AcDbCircle
10
-423.70052319132407
20
266.43159391278169
30
0
40
1.7499999999999716
210
0
220
-0
230
1
0
CIRCLE
5
109
100
AcDbEntity
8
0
100
AcDbCircle
10
-84.130656829353825
20
266.45471790681756
30
0
40
1.7500000000000071
210
0
220
-0
230
1
0
CIRCLE
5
110
100
AcDbEntity
8
0
100
AcDbCircle
10
-523.70052240726307
20
266.41907144454171
30
0
40
1.7499999999999716
210
0
220
-0
230
1
0
CIRCLE
5
111
100
AcDbEntity
8
0
100
AcDbCircle
10
-374.16570907762889
20
133.68014658598477
30
0
40
1.7499999999999716
210
0
220
0
230
1
0
CIRCLE
5
112
100
AcDbEntity
8
0
100
AcDbCircle
10
-285.07427506925632
20
133.49855139385039
30
0
40
1.7500000000000071
210
0
220
0
230
1
0
LWPOLYLINE
5
113
100
AcDbEntity
8
0
100
AcDbPolyline
90
4
70
1
43
0.0
10
-498.95000000000005
20
220.17700000000002
10
-498.95000000000005
20
162.67700000000002
10
-518.35000000000002
20
162.67700000000002
10
-518.35000000000002
20
220.17700000000002
0
LWPOLYLINE
5
114
100
AcDbEntity
8
0
100
AcDbPolyline
90
8
70
1
43
0.0
10
-479.85000000000008
20
243.67700000000002
10
-479.85000000000008
20
224.62700000000001
10
-499.25
20
224.62700000000001
10
-499.25
20
243.67700000000002
10
-518.30000000000007
20
243.67700000000002
10
-518.30000000000007
20
263.07700000000006
10
-460.80000000000007
20
263.07700000000006
10
-460.80000000000007
20
243.67700000000002
0
LWPOLYLINE
5
115
100
AcDbEntity
8
0
100
AcDbPolyline
90
30
70
1
43
0.0
10
-321.21820167158319
20
179.68362624516101
10
-317.18417404019118
20
198.66015663034545
10
-316.87338425893608
20
198.59408899101996
10
-307.86801942038375
20
196.67960863748152
10
-303.97962014106542
20
214.97092117471857
10
-304.191145855895
20
215.01588769493711
10
-308.638103469317
20
215.9610548618441
10
-304.67760541793848
20
234.59497230964931
10
-313.06319905605483
20
236.37660830157904
10
-309.09360603925541
20
255.05297119777896
10
-319.4343117424641
20
257.24994261957494
10
-315.40028261047377
20
276.23731206745867
10
-252.8818696313952
20
262.95474020116382
10
-252.66797893332338
20
263.96096050261679
10
-252.45855084071803
20
264.94623489890023
10
-224.25771659798275
20
258.9519166657891
10
-224.15989533429993
20
258.93112533311785
10
-223.10000000000002
20
258.28899999999999
10
-170.36299999999997
20
258.28900000000004
10
-170.36299999999997
20
219.83900000000003
10
-175.12499999999994
20
219.83900000000003
10
-175.12499999999994
20
200.78900000000002
10
-179.88699999999997
20
200.78900000000002
10
-179.88699999999997
20
181.73900000000003
10
-184.65000000000001
20
181.73900000000003
10
-184.65000000000001
20
162.67700000000002
10
-222.75
20
162.67700000000002
10
-222.75
20
161.72699999999998
10
-242.15000000000003
20
161.72699999999998
10
-246.34191135643681
20
163.76643706797984
0
LWPOLYLINE
5
116
100
AcDbEntity
8
0
100
AcDbPolyline
90
4
70
1
43
0.0
10
-330.99025477687434
20
151.05655441099145
10
-368.58077356313373
20
143.06599710110757
10
-372.60501504092838
20
161.9975082592328
10
-335.01449625467467
20
169.988065569116
0
LWPOLYLINE
5
117
100
AcDbEntity
8
0
100
AcDbPolyline
90
4
70
1
43
0.0
10
-89.400000000000048
20
158.62700000000001
10
-89.400000000000048
20
139.227
10
-165.95000000000005
20
139.227
10
-165.94999999999999
20
158.62700000000001
0
LWPOLYLINE
5
118
100
AcDbEntity
8
0
100
AcDbPolyline
90
4
70
1
43
0.0
10
-170.36299999999997
20
158.62700000000001
10
-170.36299999999997
20
139.227
10
-189.76200000000003
20
139.227
10
-189.76200000000003
20
158.62700000000001
0
LWPOLYLINE
5
119
100
AcDbEntity
8
0
100
AcDbPolyline
90
6
70
1
43
0.0
10
-289.72086299444675
20
143.57055939438837
10
-290.52492293442344
20
143.74112394238051
10
-327.352243395828
20
151.56938949270466
10
-323.43249832340547
20
170.00945223471763
10
-323.32192202754521
20
170.53072099108539
10
-285.69499265745924
20
162.54895261629767
0
CIRCLE
5
120
100
AcDbEntity
8
0
100
AcDbCircle
10
-508.62500000000006
20
148.47682400000002
30
0
40
9.5000000000000284
210
0
220
0
230
1
0
LWPOLYLINE
5
121
100
AcDbEntity
8
0
100
AcDbPolyline
90
4
70
1
43
0.0
10
-456.45000000000005
20
139.27700000000002
10
-456.45000000000005
20
158.67700000000002
10
-379.90000000000003
20
158.67700000000002
10
-379.90000000000003
20
139.27700000000002
0
LWPOLYLINE
5
122
100
AcDbEntity
8
0
100
AcDbPolyline
90
4
70
1
43
0.0
10
-280.25
20
139.227
10
-280.25
20
158.62700000000001
10
-203.70000000000002
20
158.62700000000001
10
-203.70000000000002
20
139.227
0
LWPOLYLINE
5
123
100
AcDbEntity
8
0
100
AcDbPolyline
90
4
70
1
43
0.0
10
-463.75000000000006
20
139.27700000000002
10
-483.15000000000003
20
139.27700000000002
10
-483.15000000000003
20
158.67700000000002
10
-463.75000000000006
20
158.67700000000002
0
LWPOLYLINE
5
124
100
AcDbEntity
8
0
100
AcDbPolyline
90
4
70
1
43
0.0
10
-89.399999999999977
20
258.28899999999999
10
-89.400000000000048
20
162.68899999999999
10
-165.94999999999999
20
162.68899999999999
10
-165.94999999999999
20
258.28899999999999
0
LWPOLYLINE
5
125
100
AcDbEntity
8
0
100
AcDbPolyline
90
19
70
1
43
0.0
10
-419.31400942974631
20
271.4594697893574
10
-517.70096241776776
20
271.41970994205781
10
-525.70052241231724
20
271.41924558719347
42
0.41421356237309853
10
-528.70034826461119
20
268.41907144959589
10
-528.69288998315244
20
139.93334952449607
10
-528.6861552419482
20
131.47397245897093
42
0.41421356237310542
10
-525.68376781146821
20
128.476361790906
10
-203.99995239435412
20
128.73246306522853
10
-189.20003439859352
20
128.74491336358037
10
-188.36137547790321
20
128.74491336358037
10
-82.019496787996289
20
128.82957503861996
42
0.41421356237309681
10
-79.021886119931366
20
131.83196246909978
10
-79.130657129924202
20
268.45710654088901
42
0.41398040320183049
10
-82.130656198190934
20
271.45471815968159
10
-217.95717108477965
20
271.45471729970427
42
-0.052557813373257177
10
-223.16959766351036
20
272.00414244324219
10
-313.48601296428404
20
291.25799115957142
42
0.10546011499830522
10
-323.91602353986116
20
291.25689105378876
10
-414.10652820057226
20
272.0099929972958
42
-0.052509386768948646
0
ENDSEC
0
SECTION
2
OBJECTS
0
DICTIONARY
5
C
100
AcDbDictionary
3
ACAD_GROUP
350
D
3
ACAD_MLINESTYLE
350
17
0
DICTIONARY
5
D
100
AcDbDictionary
0
DICTIONARY
5
1A
330
C
100
AcDbDictionary
0
DICTIONARY
5
17
100
AcDbDictionary
0
ENDSEC
0
EOF
