0
SECTION
2
HEADER
9
$INSUNITS
70
4
9
$ACADVER
1
AC1014
9
$HANDSEED
5
FFFF
0
ENDSEC
0
SECTION
2
TABLES
0
TABLE
2
VPORT
5
8
100
AcDbSymbolTable
0
ENDTAB
0
TABLE
2
LTYPE
5
5
100
AcDbSymbolTable
0
LTYPE
5
14
100
AcDbSymbolTableRecord
100
AcDbLinetypeTableRecord
2
BYBLOCK
70
0
0
LTYPE
5
15
100
AcDbSymbolTableRecord
100
AcDbLinetypeTableRecord
2
BYLAYER
70
0
0
ENDTAB
0
TABLE
2
LAYER
5
2
100
AcDbSymbolTable
70
2
0
LAYER
5
50
100
AcDbSymbolTableRecord
100
AcDbLayerTableRecord
2
0
70
0
6
CONTINUOUS
0
ENDTAB
0
TABLE
2
STYLE
5
3
100
AcDbSymbolTable
70
1
0
STYLE
5
11
100
AcDbSymbolTableRecord
100
AcDbTextStyleTableRecord
2
STANDARD
70
0
0
ENDTAB
0
TABLE
2
VIEW
5
6
100
AcDbSymbolTable
70
0
0
ENDTAB
0
TABLE
2
UCS
5
7
100
AcDbSymbolTable
70
0
0
ENDTAB
0
TABLE
2
APPID
5
9
100
AcDbSymbolTable
70
2
0
APPID
5
12
100
AcDbSymbolTableRecord
100
AcDbRegAppTableRecord
2
ACAD
70
0
0
ENDTAB
0
TABLE
2
DIMSTYLE
5
A
100
AcDbSymbolTable
70
1
0
ENDTAB
0
TABLE
2
BLOCK_RECORD
5
1
100
AcDbSymbolTable
70
1
0
BLOCK_RECORD
5
1F
100
AcDbSymbolTableRecord
100
AcDbBlockTableRecord
2
*MODEL_SPACE
0
BLOCK_RECORD
5
1B
100
AcDbSymbolTableRecord
100
AcDbBlockTableRecord
2
*PAPER_SPACE
0
ENDTAB
0
ENDSEC
0
SECTION
2
BLOCKS
0
BLOCK
5
20
100
AcDbEntity
100
AcDbBlockBegin
2
*MODEL_SPACE
0
ENDBLK
5
21
100
AcDbEntity
100
AcDbBlockEnd
0
BLOCK
5
1C
100
AcDbEntity
100
AcDbBlockBegin
2
*PAPER_SPACE
0
ENDBLK
5
1D
100
AcDbEntity
100
AcDbBlockEnd
0
ENDSEC
0
SECTION
2
ENTITIES
0
LWPOLYLINE
5
100
100
AcDbEntity
8
0
100
AcDbPolyline
90
4
70
1
43
0.0
10
330.03822406993004
20
183.65672076646504
42
0.86148267499423536
10
328.06025090217986
20
183.65672076646479
10
328.06025090217997
20
183.36071038208445
42
0.86148267499390507
10
330.03822406993004
20
183.36071038208496
0
LWPOLYLINE
5
101
100
AcDbEntity
8
0
100
AcDbPolyline
90
25
70
1
43
0.0
10
189.20003439859352
20
128.74491336358037
42
0.41421356237305862
10
190.20003439859349
20
129.74491336358037
10
190.20003439859352
20
130.73330150514317
42
-0.41421356237305862
10
191.20003439859349
20
131.73330150514317
10
202.00201011869186
20
131.73330150514315
42
-0.39954516635226789
10
203.00074335580618
20
130.78361970347353
10
203.00074852143536
20
129.73245783411028
42
0.41397896224712044
10
203.99995239435412
20
128.73246306522853
10
525.68376781146821
20
128.476361790906
42
0.41421356237309853
10
528.68615524194809
20
131.47397245897093
10
528.69288998315244
20
139.93334952449607
10
528.70034826461119
20
268.41907144959589
42
0.41421356237310197
10
525.70052241231724
20
271.41924558719347
10
517.70096241776776
20
271.41970994205781
10
419.31400942974631
20
271.45946978935734
42
-0.05250938676896056
10
414.10652820057237
20
272.0099929972958
10
323.91602353986116
20
291.25689105378876
42
0.10546011499830606
10
313.48601296428404
20
291.25799115957142
10
223.16959766351036
20
272.00414244324219
42
-0.052557813373257177
10
217.95717108477965
20
271.45471729970427
10
82.130656198190934
20
271.45471815968159
42
0.41398040320182877
10
79.130657129924217
20
268.45710654088901
10
79.021886119931338
20
131.83196246909978
42
0.41421356237309503
10
82.019496787996303
20
128.82957503861996
10
188.36137547790321
20
128.74491336358037
0
CIRCLE
5
102
100
AcDbEntity
8
0
100
AcDbCircle
10
495.82358682783149
20
151.79869134949413
30
0
40
1.0999999999999943
210
0
220
-0
230
1
0
CIRCLE
5
103
100
AcDbEntity
8
0
100
AcDbCircle
10
111.98357192516026
20
152.09843728943176
30
0
40
1.0999999999999943
210
0
220
-0
230
1
0
CIRCLE
5
104
100
AcDbEntity
8
0
100
AcDbCircle
10
403.80108277124407
20
151.87209039801792
30
0
40
1.0999999999999943
210
0
220
-0
230
1
0
CIRCLE
5
105
100
AcDbEntity
8
0
100
AcDbCircle
10
203.99965233408213
20
151.98757406954741
30
0
40
1.0999999999999943
210
0
220
-0
230
1
0
CIRCLE
5
106
100
AcDbEntity
8
0
100
AcDbCircle
10
303.9035793764956
20
151.94856431946295
30
0
40
1.0999999999999943
210
0
220
-0
230
1
0
CIRCLE
5
107
100
AcDbEntity
8
0
100
AcDbCircle
10
318.70107626071376
20
286.80741616404708
30
0
40
2.099999999999973
210
0
220
0
230
1
0
CIRCLE
5
108
100
AcDbEntity
8
0
100
AcDbCircle
10
424.61807912729637
20
133.74345001366979
30
0
40
2.1000000000000085
210
0
220
0
230
1
0
CIRCLE
5
109
100
AcDbEntity
8
0
100
AcDbCircle
10
84.130656829353825
20
266.45471790681756
30
0
40
2.1000000000000085
210
0
220
0
230
1
0
CIRCLE
5
110
100
AcDbEntity
8
0
100
AcDbCircle
10
84.071089242724469
20
133.88104998614631
30
0
40
2.1000000000000085
210
0
220
0
230
1
0
CIRCLE
5
111
100
AcDbEntity
8
0
100
AcDbCircle
10
523.68430841540646
20
133.70324812621493
30
0
40
2.1000000000000085
210
0
220
0
230
1
0
CIRCLE
5
112
100
AcDbEntity
8
0
100
AcDbCircle
10
423.70052319132407
20
266.43159391278169
30
0
40
2.1000000000000085
210
0
220
0
230
1
0
CIRCLE
5
113
100
AcDbEntity
8
0
100
AcDbCircle
10
206.60038507609002
20
133.33859795624488
30
0
40
2.1000000000000085
210
0
220
0
230
1
0
CIRCLE
5
114
100
AcDbEntity
8
0
100
AcDbCircle
10
196.60038593160081
20
266.45471743492345
30
0
40
2.1000000000000085
210
0
220
0
230
1
0
CIRCLE
5
115
100
AcDbEntity
8
0
100
AcDbCircle
10
186.58408304225333
20
133.39598129286711
30
0
40
2.1000000000000085
210
0
220
0
230
1
0
CIRCLE
5
116
100
AcDbEntity
8
0
100
AcDbCircle
10
523.70052240726307
20
266.41907144454171
30
0
40
2.1000000000000085
210
0
220
0
230
1
0
CIRCLE
5
117
100
AcDbEntity
8
0
100
AcDbCircle
10
374.16570907762889
20
133.68014658598477
30
0
40
2.1000000000000085
210
0
220
0
230
1
0
CIRCLE
5
118
100
AcDbEntity
8
0
100
AcDbCircle
10
285.07427506925632
20
133.49855139385039
30
0
40
2.1000000000000085
210
0
220
0
230
1
0
CIRCLE
5
119
100
AcDbEntity
8
0
100
AcDbCircle
10
84.130656829353825
20
266.45471790681756
30
0
40
1.0999999999999943
210
0
220
-0
230
1
0
CIRCLE
5
120
100
AcDbEntity
8
0
100
AcDbCircle
10
84.071089242724469
20
133.88104998614631
30
0
40
1.0999999999999943
210
0
220
-0
230
1
0
CIRCLE
5
121
100
AcDbEntity
8
0
100
AcDbCircle
10
186.58408304225333
20
133.39598129286711
30
0
40
1.0999999999999943
210
0
220
-0
230
1
0
CIRCLE
5
122
100
AcDbEntity
8
0
100
AcDbCircle
10
206.60038507609002
20
133.33859795624488
30
0
40
1.0999999999999943
210
0
220
-0
230
1
0
CIRCLE
5
123
100
AcDbEntity
8
0
100
AcDbCircle
10
285.07427506925632
20
133.49855139385039
30
0
40
1.0999999999999943
210
-0
220
0
230
1
0
CIRCLE
5
124
100
AcDbEntity
8
0
100
AcDbCircle
10
374.16570907762889
20
133.68014658598477
30
0
40
1.0999999999999943
210
-0
220
0
230
1
0
CIRCLE
5
125
100
AcDbEntity
8
0
100
AcDbCircle
10
424.61807912729637
20
133.74345001366979
30
0
40
1.0999999999999943
210
0
220
-0
230
1
0
CIRCLE
5
126
100
AcDbEntity
8
0
100
AcDbCircle
10
523.68430841540646
20
133.70324812621493
30
0
40
1.0999999999999943
210
0
220
-0
230
1
0
CIRCLE
5
127
100
AcDbEntity
8
0
100
AcDbCircle
10
523.70052240726307
20
266.41907144454171
30
0
40
1.0999999999999943
210
0
220
-0
230
1
0
CIRCLE
5
128
100
AcDbEntity
8
0
100
AcDbCircle
10
423.70052319132407
20
266.43159391278169
30
0
40
1.0999999999999943
210
0
220
-0
230
1
0
CIRCLE
5
129
100
AcDbEntity
8
0
100
AcDbCircle
10
318.70107626071376
20
286.80741616404708
30
0
40
1.0999999999999943
210
-0
220
0
230
1
0
CIRCLE
5
130
100
AcDbEntity
8
0
100
AcDbCircle
10
196.60038593160081
20
266.45471743492345
30
0
40
1.0999999999999943
210
0
220
-0
230
1
0
ENDSEC
0
SECTION
2
OBJECTS
0
DICTIONARY
5
C
100
AcDbDictionary
3
ACAD_GROUP
350
D
3
ACAD_MLINESTYLE
350
17
0
DICTIONARY
5
D
100
AcDbDictionary
0
DICTIONARY
5
1A
330
C
100
AcDbDictionary
0
DICTIONARY
5
17
100
AcDbDictionary
0
ENDSEC
0
EOF
